<svg xmlns="http://www.w3.org/2000/svg" viewBox="0 0 64 64">
  <rect width="64" height="64" rx="10" fill="#f5f3ed"/>
  <g fill="#0f1012">
    <path d="M7 20C12 8 24 4 36 6C45 8 52 15 57 13C55 18 50 21 42 19C34 17 29 10 20 12C14 13 10 17 9 23C11 25 15 26 19 24C16 29 11 29 7 26C5 24 5 22 7 20Z"/>
    <path d="M34 15C30 17 27 21 27 25C27 30 30 33 34 36C38 39 40 42 39 46C38 50 34 52 30 52C26 52 22 50 20 47C24 49 27 48 29 45C31 42 30 39 27 36C23 32 21 29 21 24C21 17 26 12 33 11C38 10 42 12 45 15C41 14 37 13 34 15Z"/>
    <path d="M10 48C15 44 21 44 27 47C33 50 38 56 46 54C50 53 54 51 57 47C55 53 50 58 43 60C34 63 24 61 17 56C14 54 12 52 10 48Z"/>
    <path d="M14 22C15 17 18 14 22 14C26 14 29 16 30 19C26 17 22 17 20 20C19 22 19 24 20 26C18 26 16 25 15 24C14 24 14 23 14 22Z"/>
  </g>
</svg>
